<svg width="287" height="287" viewBox="0 0 287 287" fill="none" xmlns="http://www.w3.org/2000/svg">
<path opacity="0.4" d="M69.0253 205.562C69.4591 199.49 69.6759 196.453 70.1498 194.312C73.1505 180.751 83.464 171.881 97.3213 170.943C99.5095 170.795 102.923 171.065 109.751 171.605C119.861 172.404 130.864 172.997 141.255 172.997C152.835 172.997 165.768 172.261 177.542 171.323C184.217 170.791 187.554 170.525 189.841 170.694C203.4 171.694 213.762 180.6 216.788 193.855C217.298 196.091 217.516 199.141 217.952 205.24C218.443 212.113 218.688 215.55 218.437 218.401C216.993 234.77 204.614 248.065 188.39 250.671C185.563 251.125 182.118 251.125 175.227 251.125H141.255H111.45C104.857 251.125 101.561 251.125 98.8545 250.71C82.4306 248.187 69.888 234.717 68.5425 218.155C68.3208 215.426 68.5556 212.138 69.0253 205.562Z" fill="#27496D"/>
<path opacity="0.4" d="M101.646 89.6882C101.646 66.5727 120.385 47.834 143.5 47.834C166.615 47.834 185.354 66.5727 185.354 89.6882V95.6673C185.354 115.481 169.292 131.542 149.479 131.542H137.521C117.708 131.542 101.646 115.481 101.646 95.6673V89.6882Z" fill="#27496D"/>
<path fill-rule="evenodd" clip-rule="evenodd" d="M189.225 179.042C187.756 178.934 185.274 179.104 178.207 179.667C166.326 180.614 153.148 181.368 141.255 181.368C130.57 181.368 119.333 180.76 109.091 179.95C101.865 179.378 99.2888 179.2 97.8865 179.295C87.7363 179.982 80.5209 186.187 78.3229 196.12C78.0178 197.5 77.8342 199.728 77.3749 206.158C76.8826 213.051 76.7291 215.547 76.8859 217.477C77.9175 230.175 87.5334 240.502 100.125 242.436C102.039 242.73 104.539 242.754 111.45 242.754H175.227C182.45 242.754 185.063 242.727 187.062 242.406C199.501 240.408 208.992 230.215 210.098 217.666C210.276 215.649 210.117 213.041 209.602 205.836C209.141 199.378 208.956 197.161 208.627 195.718C206.419 186.047 199.118 179.772 189.225 179.042ZM177.842 162.901C183.593 162.442 187.514 162.129 190.457 162.346C207.682 163.617 221.104 175.153 224.949 191.992C225.605 194.868 225.865 198.513 226.24 203.788C226.26 204.068 226.281 204.353 226.301 204.643C226.321 204.923 226.341 205.198 226.36 205.469C226.796 211.548 227.086 215.607 226.775 219.137C224.995 239.324 209.727 255.722 189.717 258.936C186.219 259.498 182.149 259.497 176.055 259.496C175.783 259.496 175.507 259.496 175.227 259.496H111.45C111.182 259.496 110.918 259.496 110.658 259.496C104.827 259.497 100.934 259.498 97.584 258.983C77.3279 255.873 61.8587 239.259 60.1992 218.833C59.9248 215.455 60.2028 211.572 60.6193 205.756C60.6378 205.496 60.6567 205.233 60.6758 204.966C60.6967 204.673 60.7172 204.385 60.7373 204.102C61.1107 198.859 61.3671 195.258 61.9767 192.503C65.7802 175.315 79.1918 163.78 96.7563 162.592C99.5724 162.401 103.533 162.715 109.405 163.18C109.734 163.207 110.069 163.233 110.41 163.26C120.39 164.049 131.157 164.627 141.255 164.627C152.522 164.627 165.21 163.908 176.877 162.978C177.204 162.952 177.526 162.927 177.842 162.901Z" fill="#27496D"/>
<path fill-rule="evenodd" clip-rule="evenodd" d="M93.275 89.6879C93.275 61.9494 115.762 39.4629 143.5 39.4629C171.239 39.4629 193.725 61.9494 193.725 89.6879V95.6671C193.725 120.103 173.915 139.913 149.479 139.913H137.521C113.085 139.913 93.275 120.103 93.275 95.6671V89.6879ZM143.5 56.2046C125.008 56.2046 110.017 71.1956 110.017 89.6879V95.6671C110.017 110.857 122.331 123.171 137.521 123.171H149.479C164.669 123.171 176.983 110.857 176.983 95.6671V89.6879C176.983 71.1956 161.992 56.2046 143.5 56.2046Z" fill="#27496D"/>
<path fill-rule="evenodd" clip-rule="evenodd" d="M237.405 164.23C239.166 159.955 244.058 157.916 248.333 159.677L245.146 167.417C248.333 159.677 248.337 159.678 248.341 159.68L248.35 159.684L248.369 159.691L248.412 159.709L248.517 159.754L248.805 159.882C249.03 159.984 249.321 160.121 249.668 160.295C250.362 160.643 251.286 161.142 252.364 161.811C254.51 163.144 257.328 165.191 260.146 168.119C265.89 174.088 271.454 183.568 271.454 197.313C271.454 211.057 265.89 220.537 260.146 226.506C257.328 229.435 254.51 231.482 252.364 232.814C251.286 233.484 250.362 233.983 249.668 234.33C249.321 234.504 249.03 234.641 248.805 234.744L248.517 234.871L248.412 234.916L248.369 234.934L248.35 234.942L248.341 234.946C248.337 234.947 248.333 234.949 245.146 227.209L248.333 234.949C244.058 236.709 239.166 234.671 237.405 230.396C235.656 226.147 237.659 221.288 241.882 219.501C241.87 219.506 241.868 219.506 241.878 219.502L241.89 219.497L241.906 219.49L241.929 219.48L241.942 219.475M241.947 219.473C241.945 219.474 241.943 219.475 241.942 219.475L241.943 219.475L241.947 219.473ZM241.947 219.473C241.948 219.473 241.95 219.472 241.951 219.472C241.951 219.472 241.951 219.472 241.951 219.472L241.947 219.473ZM241.882 219.5C241.884 219.499 241.887 219.498 241.89 219.497C241.927 219.48 242.021 219.436 242.165 219.364C242.453 219.22 242.929 218.966 243.533 218.591C244.75 217.836 246.416 216.63 248.083 214.898C251.308 211.546 254.713 206.079 254.713 197.313C254.713 188.547 251.308 183.079 248.083 179.728C246.416 177.996 244.75 176.79 243.533 176.034C242.929 175.659 242.453 175.406 242.165 175.261C242.021 175.189 241.927 175.146 241.89 175.129M237.405 164.23C235.656 168.479 237.659 173.338 241.882 175.125L237.405 164.23ZM241.882 175.125C241.876 175.123 241.873 175.121 241.872 175.121C241.871 175.12 241.873 175.121 241.878 175.123L241.906 175.135L241.929 175.145L241.943 175.151L241.951 175.154" fill="#27496D"/>
<path fill-rule="evenodd" clip-rule="evenodd" d="M49.7954 164.77C48.3335 160.384 43.5929 158.014 39.2071 159.476L41.8542 167.417C39.2071 159.476 39.2023 159.477 39.1975 159.479L39.1876 159.482L39.1664 159.489L39.1188 159.506L39.0034 159.546C38.9177 159.576 38.8143 159.614 38.6945 159.659C38.455 159.75 38.1489 159.871 37.786 160.027C37.0613 160.337 36.1016 160.788 34.9862 161.408C32.764 162.642 29.8609 164.583 26.9663 167.477C21.0178 173.426 15.5458 182.989 15.5458 197.313C15.5458 211.636 21.0178 221.2 26.9663 227.149C29.8609 230.043 32.764 231.984 34.9862 233.218C36.1016 233.838 37.0613 234.289 37.786 234.599C38.1489 234.755 38.455 234.876 38.6945 234.966C38.8143 235.012 38.9177 235.049 39.0034 235.08L39.1188 235.12L39.1664 235.136L39.1876 235.143L39.1975 235.147C39.2023 235.148 39.2071 235.15 41.8542 227.209L39.2071 235.15C43.5929 236.612 48.3335 234.242 49.7954 229.856C51.2458 225.505 48.9243 220.804 44.6047 219.303C44.5754 219.292 44.4987 219.262 44.3808 219.211C44.1246 219.101 43.6829 218.898 43.1167 218.583C41.9755 217.949 40.3943 216.9 38.8045 215.31C35.7843 212.29 32.2875 206.906 32.2875 197.313C32.2875 187.72 35.7843 182.336 38.8045 179.315C40.3943 177.725 41.9755 176.676 43.1167 176.042C43.6829 175.728 44.1246 175.525 44.3808 175.415C44.4987 175.364 44.5754 175.334 44.6047 175.323C48.9243 173.822 51.2458 169.121 49.7954 164.77Z" fill="#27496D"/>
<path fill-rule="evenodd" clip-rule="evenodd" d="M207.053 52.114C207.992 47.5871 212.422 44.678 216.949 45.6163L215.25 53.8129C216.949 45.6163 216.953 45.6172 216.957 45.6181L216.966 45.6199L216.986 45.624L217.031 45.6337L217.149 45.6597L217.488 45.7388C217.758 45.8041 218.115 45.8956 218.548 46.0175C219.411 46.2608 220.585 46.6282 221.968 47.155C224.71 48.1999 228.401 49.9209 232.138 52.6435C239.822 58.2423 247.538 68.0441 247.538 83.7088C247.538 99.3734 239.822 109.175 232.138 114.774C228.401 117.497 224.71 119.218 221.968 120.263C220.585 120.789 219.411 121.157 218.548 121.4C218.115 121.522 217.758 121.613 217.488 121.679L217.149 121.758L217.031 121.784L216.986 121.794L216.966 121.798L216.957 121.799C216.953 121.8 216.949 121.801 215.25 113.605L216.949 121.801C212.422 122.74 207.992 119.83 207.053 115.304C206.119 110.796 208.999 106.384 213.493 105.42L213.549 105.407C213.63 105.387 213.786 105.348 214.008 105.286C214.452 105.16 215.147 104.946 216.006 104.618C217.749 103.954 220.036 102.877 222.279 101.243C226.553 98.1287 230.796 92.9826 230.796 83.7088C230.796 74.4349 226.553 69.2888 222.279 66.1743C220.036 64.5403 217.749 63.4633 216.006 62.7993C215.147 62.4717 214.452 62.257 214.008 62.1318C213.786 62.0694 213.63 62.0301 213.549 62.0106L213.493 61.9972C208.999 61.0331 206.119 56.6214 207.053 52.114Z" fill="#27496D"/>
<path fill-rule="evenodd" clip-rule="evenodd" d="M80.0063 52.4328C79.2443 47.873 74.9301 44.7942 70.3702 45.5562L71.75 53.8126C70.3702 45.5562 70.3659 45.557 70.3614 45.5577L70.3521 45.5593L70.3317 45.5628L70.284 45.571L70.1619 45.5931L69.8144 45.6606C69.5384 45.7167 69.1742 45.796 68.7345 45.9035C67.857 46.118 66.6661 46.4478 65.2646 46.935C62.4853 47.901 58.7419 49.533 54.9522 52.2183C47.0956 57.7851 39.4625 67.6553 39.4625 83.7084C39.4625 99.7614 47.0956 109.632 54.9521 115.198C58.7419 117.884 62.4853 119.516 65.2646 120.482C66.6661 120.969 67.857 121.299 68.7345 121.513C69.1742 121.621 69.5384 121.7 69.8144 121.756L70.1619 121.824L70.284 121.846L70.3316 121.854L70.3521 121.858L70.3614 121.859C70.3658 121.86 70.3702 121.861 71.75 113.604L70.3702 121.861C74.93 122.623 79.2443 119.544 80.0063 114.984C80.7648 110.445 77.718 106.15 73.193 105.359C73.193 105.359 73.1929 105.359 73.1929 105.359C73.1844 105.357 73.1695 105.354 73.1484 105.35C73.0741 105.335 72.9244 105.303 72.7102 105.251C72.2797 105.145 71.6021 104.961 70.7614 104.668C69.0563 104.076 66.8206 103.09 64.6312 101.538C60.5293 98.6319 56.2042 93.5543 56.2042 83.7084C56.2042 73.8625 60.5293 68.7848 64.6312 65.8785C66.8206 64.3271 69.0563 63.3412 70.7614 62.7485C71.6021 62.4563 72.2797 62.2715 72.7102 62.1663C72.9244 62.1139 73.0741 62.0821 73.1484 62.067M73.1928 62.0581C73.1929 62.0581 73.1929 62.0581 73.193 62.0581C73.1993 62.0569 73.2019 62.0564 73.2008 62.0566L73.1813 62.0601L73.1596 62.0639L73.1457 62.0662" fill="#27496D"/>
</svg>
