<svg width="287" height="287" viewBox="0 0 287 287" fill="none" xmlns="http://www.w3.org/2000/svg">
<path opacity="0.4" d="M263.083 143.5C263.083 209.544 209.544 263.084 143.5 263.084C77.4559 263.084 23.9167 209.544 23.9167 143.5C23.9167 77.4563 77.4559 23.917 143.5 23.917C209.544 23.917 263.083 77.4563 263.083 143.5Z" fill="#27496D"/>
<path fill-rule="evenodd" clip-rule="evenodd" d="M143.5 32.2876C82.079 32.2876 32.2875 82.0791 32.2875 143.5C32.2875 204.921 82.079 254.713 143.5 254.713C204.921 254.713 254.713 204.921 254.713 143.5C254.713 82.0791 204.921 32.2876 143.5 32.2876ZM15.5458 143.5C15.5458 72.8329 72.8329 15.5459 143.5 15.5459C214.167 15.5459 271.454 72.8329 271.454 143.5C271.454 214.167 214.167 271.454 143.5 271.454C72.8329 271.454 15.5458 214.167 15.5458 143.5Z" fill="#27496D"/>
<path d="M151.871 92.0788C151.871 96.7019 148.123 100.45 143.5 100.45C138.877 100.45 135.129 96.7019 135.129 92.0788C135.129 87.4558 138.877 83.708 143.5 83.708C148.123 83.708 151.871 87.4558 151.871 92.0788Z" fill="#27496D"/>
<path fill-rule="evenodd" clip-rule="evenodd" d="M143.5 123.171C148.123 123.171 151.871 126.919 151.871 131.542V203.292C151.871 207.915 148.123 211.663 143.5 211.663C138.877 211.663 135.129 207.915 135.129 203.292V131.542C135.129 126.919 138.877 123.171 143.5 123.171Z" fill="#27496D"/>
</svg>
