<svg width="287" height="287" viewBox="0 0 287 287" fill="none" xmlns="http://www.w3.org/2000/svg">
<path d="M99.8329 42.5125L68.5301 67.2956L68.5301 67.2957C54.2992 78.5626 47.1837 84.1961 42.6978 91.6682C41.2178 94.1336 39.963 96.7274 38.9488 99.4182C35.875 107.573 35.875 116.649 35.875 134.8V176.984C35.875 212.856 35.875 230.792 45.0104 243.366C47.9607 247.427 51.5318 250.998 55.5926 253.948C68.1663 263.084 86.1026 263.084 121.975 263.084H165.025C200.897 263.084 218.834 263.084 231.407 253.948C235.468 250.998 239.039 247.427 241.99 243.366C251.125 230.792 251.125 212.856 251.125 176.984V110.017C251.125 74.1446 251.125 56.2083 241.99 43.6346C239.039 39.5738 235.468 36.0027 231.407 33.0523C218.834 23.917 200.897 23.917 165.025 23.917H153.278C140.105 23.917 133.518 23.917 127.303 25.6229C125.243 26.1883 123.223 26.8911 121.257 27.7266C115.325 30.2471 110.161 34.3356 99.8329 42.5125L99.8329 42.5125Z" fill="#27496D" fill-opacity="0.5"/>
<path fill-rule="evenodd" clip-rule="evenodd" d="M35.875 99.2544L50.6471 99.2544C67.6163 99.2544 79.7132 99.2443 89.0968 98.2897C98.3405 97.3494 104.019 95.5623 108.446 92.6038C112.755 89.7247 116.455 86.025 119.334 81.7161C122.292 77.2884 124.08 71.6104 125.02 62.3667C125.974 52.983 125.985 40.8862 125.985 23.9169L142.726 23.9169L142.726 24.384C142.726 40.7834 142.726 53.7313 141.676 64.061C140.601 74.6285 138.357 83.3803 133.254 91.0173C129.154 97.1542 123.884 102.423 117.747 106.524C110.11 111.627 101.359 113.87 90.7911 114.945C80.4614 115.996 67.5133 115.996 51.1138 115.996L35.875 115.996L35.875 99.2544Z" fill="#27496D"/>
<path fill-rule="evenodd" clip-rule="evenodd" d="M152.088 15.546C152.48 15.5461 152.876 15.5462 153.278 15.5462L165.524 15.5462C183.037 15.5461 196.864 15.546 207.855 16.7368C219.107 17.9559 228.376 20.503 236.328 26.2802C241.099 29.7469 245.295 33.9429 248.762 38.7143C254.539 46.666 257.086 55.9351 258.305 67.1871C259.496 78.1782 259.496 92.0045 259.496 109.517V177.483C259.496 194.996 259.496 208.822 258.305 219.814C257.086 231.066 254.539 240.335 248.762 248.286C245.295 253.058 241.099 257.254 236.328 260.72C228.376 266.498 219.107 269.045 207.855 270.264C196.864 271.455 183.037 271.455 165.524 271.454H121.476C103.963 271.455 90.1364 271.455 79.1451 270.264C67.8931 269.045 58.624 266.498 50.6724 260.72C45.9009 257.254 41.7049 253.058 38.2382 248.286C32.461 240.335 29.9139 231.066 28.6948 219.814C27.504 208.822 27.5041 194.996 27.5042 177.483L27.5042 134.8C27.5042 134.24 27.504 133.686 27.5039 133.139C27.5001 116.587 27.4976 106.066 31.1159 96.4658C32.3076 93.3042 33.7819 90.2565 35.521 87.3597C40.8015 78.5639 49.0524 72.0346 62.0318 61.7635C62.4607 61.424 62.8948 61.0805 63.3341 60.7327L94.6369 35.9496C94.9516 35.7004 95.2625 35.4542 95.5697 35.2108C105.004 27.7391 111.001 22.9893 117.983 20.0224C120.293 19.0408 122.667 18.215 125.087 17.5506C132.403 15.5426 140.053 15.5439 152.088 15.546ZM153.278 32.2878C139.657 32.2878 134.395 32.3568 129.519 33.6952C127.819 34.1617 126.152 34.7415 124.53 35.4307C119.876 37.4083 115.708 40.6208 105.029 49.0754L73.7262 73.8586C58.9974 85.5196 53.3914 90.1189 49.8747 95.9768C48.6536 98.0107 47.6185 100.151 46.7818 102.371C44.372 108.764 44.2458 116.014 44.2458 134.8V176.984C44.2458 195.106 44.2573 208.026 45.339 218.01C46.4038 227.838 48.4244 233.824 51.7825 238.446C54.2165 241.796 57.1627 244.742 60.5129 247.176C65.1349 250.534 71.1208 252.555 80.9484 253.62C90.9327 254.701 103.852 254.713 121.975 254.713H165.025C183.148 254.713 196.067 254.701 206.052 253.62C215.879 252.555 221.865 250.534 226.487 247.176C229.837 244.742 232.783 241.796 235.218 238.446C238.576 233.824 240.596 227.838 241.661 218.01C242.743 208.026 242.754 195.106 242.754 176.984V110.017C242.754 91.8943 242.743 78.9747 241.661 68.9904C240.596 59.1628 238.576 53.1769 235.218 48.5549C232.783 45.2047 229.837 42.2585 226.487 39.8245C221.865 36.4664 215.879 34.4458 206.052 33.381C196.067 32.2993 183.148 32.2878 165.025 32.2878H153.278Z" fill="#27496D"/>
<path fill-rule="evenodd" clip-rule="evenodd" d="M143.5 227.209C138.877 227.209 135.129 223.461 135.129 218.838L135.129 151.871C135.129 147.248 138.877 143.501 143.5 143.501C148.123 143.501 151.871 147.248 151.871 151.871L151.871 218.838C151.871 223.461 148.123 227.209 143.5 227.209Z" fill="#27496D"/>
<path fill-rule="evenodd" clip-rule="evenodd" d="M148.573 136.616C151.375 139.418 151.375 143.961 148.573 146.763L122.845 172.491C120.043 175.293 115.5 175.293 112.698 172.491C109.896 169.689 109.896 165.146 112.698 162.344L138.426 136.616C141.229 133.814 145.771 133.814 148.573 136.616Z" fill="#27496D"/>
<path fill-rule="evenodd" clip-rule="evenodd" d="M138.427 136.616C135.624 139.418 135.624 143.961 138.427 146.763L164.155 172.491C166.957 175.293 171.499 175.293 174.301 172.491C177.104 169.689 177.104 165.146 174.301 162.344L148.573 136.616C145.771 133.814 141.229 133.814 138.427 136.616Z" fill="#27496D"/>
</svg>
